<svg width="2466" height="2009" viewBox="0 0 2466 2009" fill="none" xmlns="http://www.w3.org/2000/svg">
<path d="M2027.13 598.03H2070.32L2298.89 1267.55L2264.7 1285.55M2027.13 598.03L1845.35 319.062L1591.58 142.683L1341.41 59.8928L1100.23 38.2953L905.858 59.8928L666.486 121.086L499.106 202.076L324.526 338.86L187.742 515.239L88.7538 716.816L38.3597 947.189V1213.56L88.7538 1436.73L173.344 1622.11L229.137 1641.91L371.321 1863.28L697.082 1850.68L1125.43 1818.29L1463.79 1796.69H1735.56L1924.54 1838.08L2154.91 1910.08L2360.09 1971.27H2388.88L2408.68 1890.28L2428.48 1762.49V1676.1L2388.88 1528.52L2264.7 1285.55M2027.13 598.03L1591.58 733.253L1374.42 687.168L1230.02 598.03L1100.23 644.156L1064.12 776.265L1174.72 905.301L1306.83 1025.12L1494.24 1138.8L1657.07 1213.56L1899.78 1237.11L2264.7 1285.55" stroke="black" stroke-width="75"/>
</svg>
