<svg width="2563" height="2027" viewBox="0 0 2563 2027" fill="none" xmlns="http://www.w3.org/2000/svg">
<path d="M2328.86 1385.88L2344.56 1419.93C2361.33 1412.2 2369.97 1393.4 2364.93 1375.64L2328.86 1385.88ZM2135.64 705.313L2171.71 695.071C2167.33 679.64 2153.62 668.704 2137.6 667.865L2135.64 705.313ZM1925.57 414.954L1958.02 396.154C1955.59 391.967 1952.38 388.289 1948.56 385.323L1925.57 414.954ZM1681.38 225.535L1704.36 195.905C1701.52 193.696 1698.37 191.909 1695.01 190.599L1681.38 225.535ZM1435.88 129.765L1449.51 94.8296C1446.83 93.7823 1444.03 93.0479 1441.18 92.641L1435.88 129.765ZM1196.17 95.5755L1201.47 58.4512C1198.99 58.0979 1196.49 57.9934 1193.99 58.1392L1196.17 95.5755ZM1000.93 106.97L998.748 69.5342C997.005 69.6359 995.271 69.8592 993.559 70.2025L1000.93 106.97ZM758.686 155.552L751.313 118.784C748.855 119.277 746.452 120.015 744.142 120.987L758.686 155.552ZM587.296 227.671L572.752 193.107C570.285 194.145 567.936 195.444 565.745 196.983L587.296 227.671ZM405.798 355.131L384.246 324.442C381.721 326.216 379.424 328.294 377.408 330.631L405.798 355.131ZM259.97 524.11L231.58 499.609C229.92 501.534 228.459 503.621 227.221 505.841L259.97 524.11ZM150.568 720.229L117.819 701.96C116.348 704.596 115.202 707.399 114.404 710.309L150.568 720.229ZM88.1859 947.649L52.0217 937.729C51.3089 940.328 50.8783 942.995 50.7373 945.686L88.1859 947.649ZM74.2452 1213.65L36.7966 1211.69C36.6511 1214.47 36.8146 1217.25 37.284 1219.99L74.2452 1213.65ZM112.89 1439.16L75.929 1445.49C76.3643 1448.03 77.0604 1450.52 78.0062 1452.92L112.89 1439.16ZM187.662 1628.71L152.778 1642.47C153.969 1645.49 155.547 1648.34 157.472 1650.95L187.662 1628.71ZM372.746 1879.91L342.556 1902.16C349.613 1911.73 360.799 1917.4 372.697 1917.41L372.746 1879.91ZM2386.53 1882.52L2386.48 1920.02C2399.52 1920.04 2411.64 1913.28 2418.47 1902.17L2386.53 1882.52ZM2436.88 1800.65L2468.82 1820.3C2473.87 1812.1 2475.56 1802.27 2473.56 1792.85L2436.88 1800.65ZM2405.06 1651.2L2441.74 1643.39C2441.19 1640.82 2440.38 1638.31 2439.3 1635.91L2405.06 1651.2ZM1650.47 815.295L1651.56 852.78C1654.31 852.7 1657.04 852.318 1659.7 851.642L1650.47 815.295ZM1121.49 830.644L1120.4 793.159C1106.31 793.568 1093.64 801.842 1087.6 814.577C1081.56 827.312 1083.18 842.358 1091.78 853.525L1121.49 830.644ZM1225.18 965.292L1195.47 988.173C1195.95 988.796 1196.45 989.404 1196.97 989.996L1225.18 965.292ZM1359.53 1118.72L1331.32 1143.42C1334.14 1146.64 1337.49 1149.36 1341.23 1151.45L1359.53 1118.72ZM1532.04 1215.19L1513.74 1247.92C1514.04 1248.08 1514.33 1248.25 1514.63 1248.4L1532.04 1215.19ZM1690.74 1298.37L1673.33 1331.58C1677.03 1333.52 1681.04 1334.83 1685.17 1335.45L1690.74 1298.37ZM1931.89 1334.59L1938.76 1297.73C1938.33 1297.65 1937.89 1297.57 1937.46 1297.51L1931.89 1334.59ZM2364.93 1375.64L2171.71 695.071L2099.56 715.555L2292.78 1396.12L2364.93 1375.64ZM2137.6 667.865L2094.46 665.604L2090.54 740.501L2133.67 742.762L2137.6 667.865ZM2124.95 684.252L1958.02 396.154L1893.12 433.754L2060.05 721.853L2124.95 684.252ZM1948.56 385.323L1704.36 195.905L1658.4 255.166L1902.59 444.585L1948.56 385.323ZM1695.01 190.599L1449.51 94.8296L1422.26 164.701L1667.75 260.471L1695.01 190.599ZM1441.18 92.641L1201.47 58.4512L1190.88 132.7L1430.59 166.89L1441.18 92.641ZM1193.99 58.1392L998.748 69.5342L1003.12 144.407L1198.36 133.012L1193.99 58.1392ZM993.559 70.2025L751.313 118.784L766.06 192.32L1008.31 143.738L993.559 70.2025ZM744.142 120.987L572.752 193.107L601.841 262.236L773.231 190.116L744.142 120.987ZM565.745 196.983L384.246 324.442L427.349 385.819L608.848 258.36L565.745 196.983ZM377.408 330.631L231.58 499.609L288.36 548.61L434.187 379.631L377.408 330.631ZM227.221 505.841L117.819 701.96L183.317 738.498L292.719 542.378L227.221 505.841ZM114.404 710.309L52.0217 937.729L124.35 957.569L186.732 730.149L114.404 710.309ZM50.7373 945.686L36.7966 1211.69L111.694 1215.62L125.634 949.612L50.7373 945.686ZM37.284 1219.99L75.929 1445.49L149.851 1432.82L111.206 1207.32L37.284 1219.99ZM78.0062 1452.92L152.778 1642.47L222.546 1614.95L147.774 1425.4L78.0062 1452.92ZM372.697 1917.41L2386.48 1920.02L2386.58 1845.02L372.794 1842.41L372.697 1917.41ZM2418.47 1902.17L2468.82 1820.3L2404.94 1781.01L2354.59 1862.87L2418.47 1902.17ZM2473.56 1792.85L2441.74 1643.39L2368.39 1659.01L2400.2 1808.46L2473.56 1792.85ZM2439.3 1635.91L2328 1386.77L2259.53 1417.36L2370.83 1666.5L2439.3 1635.91ZM2309.47 1436.12L2344.56 1419.93L2313.15 1351.83L2278.06 1368.01L2309.47 1436.12ZM2083.27 666.706L1641.24 778.949L1659.7 851.642L2101.73 739.399L2083.27 666.706ZM1649.38 777.811L1120.4 793.159L1122.57 868.128L1651.56 852.78L1649.38 777.811ZM1091.78 853.525L1195.47 988.173L1254.89 942.411L1151.2 807.763L1091.78 853.525ZM1196.97 989.996L1331.32 1143.42L1387.74 1094.01L1253.4 940.587L1196.97 989.996ZM1341.23 1151.45L1513.74 1247.92L1550.35 1182.46L1377.83 1085.99L1341.23 1151.45ZM1514.63 1248.4L1673.33 1331.58L1708.15 1265.16L1549.45 1181.97L1514.63 1248.4ZM1685.17 1335.45L1926.32 1371.68L1937.46 1297.51L1696.31 1261.29L1685.17 1335.45ZM1925.01 1371.46L2286.89 1438.93L2300.64 1365.2L1938.76 1297.73L1925.01 1371.46ZM402.936 1857.67L217.853 1606.47L157.472 1650.95L342.556 1902.16L402.936 1857.67Z" fill="black"/>
</svg>
